<!DOCTYPE svg PUBLIC "-//W3C//DTD SVG 20010904//EN" "http://www.w3.org/TR/2001/REC-SVG-20010904/DTD/svg10.dtd">
<svg version="1.0" xmlns="http://www.w3.org/2000/svg" width="470px" height="352px" viewBox="0 0 4700 3520" preserveAspectRatio="xMidYMid meet">
<g id="layer101" fill="#000000" stroke="none">
 <path d="M2270 3325 c-11 -30 -26 -32 -42 -5 -17 27 -38 25 -64 -7 -21 -26 -22 -27 -47 -10 -34 22 -61 21 -139 -3 -34 -11 -74 -20 -86 -20 -15 0 -26 -7 -29 -20 -5 -17 -11 -19 -37 -15 -66 13 -213 -73 -235 -137 -6 -15 -14 -28 -19 -28 -17 0 -30 -44 -18 -63 9 -15 7 -21 -9 -33 -11 -8 -32 -18 -47 -21 -21 -4 -28 -11 -28 -29 0 -31 -11 -30 -38 1 -30 34 -45 32 -37 -5 l6 -29 -30 15 c-37 19 -50 15 -121 -34 -43 -30 -61 -51 -85 -101 -19 -40 -37 -64 -51 -67 -13 -3 -30 -24 -44 -55 -13 -27 -32 -57 -43 -66 -10 -10 -23 -26 -28 -35 -9 -17 -7 -16 25 1 38 22 46 19 46 -15 0 -45 -21 -74 -54 -74 -37 0 -44 -5 -72 -45 -30 -44 -36 -66 -22 -82 10 -12 7 -20 -19 -42 -34 -29 -52 -85 -58 -189 -2 -34 -7 -71 -10 -82 -5 -15 0 -23 19 -32 30 -13 32 -26 11 -54 -8 -10 -15 -30 -15 -42 0 -15 -7 -26 -20 -29 -24 -6 -24 -4 -5 -39 8 -16 15 -38 15 -48 0 -11 7 -28 17 -38 14 -16 14 -20 1 -35 -32 -39 -50 -162 -29 -202 6 -10 14 -53 20 -97 13 -102 19 -118 38 -103 8 7 17 8 22 3 12 -13 31 -75 26 -84 -2 -4 4 -15 15 -25 31 -28 24 -79 -7 -53 -46 38 -6 -53 88 -202 62 -98 88 -130 104 -130 20 0 75 -56 75 -77 0 -29 107 -152 138 -159 44 -10 71 -32 86 -69 17 -40 46 -46 67 -16 19 27 59 31 73 8 9 -16 7 -22 -11 -34 -21 -14 -21 -15 -2 -34 10 -10 27 -19 37 -19 10 0 31 -13 47 -30 16 -16 44 -33 62 -36 18 -3 38 -15 44 -25 5 -11 19 -19 30 -19 12 0 34 -11 49 -23 18 -15 47 -26 80 -30 29 -4 58 -11 65 -17 7 -6 49 -14 92 -16 156 -11 157 -11 168 14 13 30 31 28 47 -6 10 -20 20 -26 38 -24 14 1 64 2 113 2 48 0 97 4 108 11 15 8 24 8 32 0 17 -17 25 -13 42 19 14 27 18 28 43 19 15 -6 34 -12 42 -13 8 -1 27 -6 42 -10 21 -6 51 1 122 28 76 30 99 44 115 69 18 28 26 32 63 32 54 1 126 35 179 86 22 21 48 39 57 39 21 1 67 39 75 63 4 9 17 17 29 17 26 1 68 32 68 51 0 7 7 20 16 30 13 14 13 20 2 39 -12 19 -10 24 12 44 32 28 45 53 55 96 10 46 46 100 68 100 9 0 17 5 17 10 0 6 -4 10 -10 10 -5 0 -10 13 -10 29 0 17 -5 33 -11 36 -6 4 -8 13 -5 21 3 8 2 14 -3 14 -14 0 -34 -54 -35 -95 -1 -36 -4 -40 -28 -43 -16 -2 -28 -8 -28 -13 0 -5 -28 -39 -62 -75 -35 -36 -67 -72 -71 -80 -6 -11 -12 -12 -21 -5 -8 7 -17 6 -26 0 -11 -8 -12 -12 -2 -16 16 -6 15 -28 -2 -42 -19 -16 -60 4 -52 24 4 11 -2 13 -24 8 -39 -7 -39 12 0 32 16 8 37 28 47 43 9 15 37 50 62 78 89 101 101 122 101 185 0 43 -4 58 -16 63 -15 6 -15 9 -3 24 20 24 59 97 59 111 0 6 -14 17 -30 26 -28 14 -32 14 -50 -3 -13 -12 -18 -25 -14 -36 5 -12 1 -19 -14 -23 -13 -3 -23 -16 -27 -34 -8 -36 -23 -46 -41 -27 -13 13 -13 18 1 44 8 16 15 39 15 51 0 12 5 25 10 28 15 9 -7 35 -30 35 -9 0 -24 -8 -33 -18 -18 -20 -22 -42 -8 -42 13 0 -29 -79 -50 -94 -12 -8 -17 -20 -13 -29 4 -11 -2 -16 -23 -19 -23 -2 -34 -14 -62 -67 l-33 -64 -67 5 c-80 6 -103 19 -130 73 -25 49 -22 111 8 172 12 23 20 46 20 50 -4 17 31 81 60 112 17 18 31 43 31 55 0 13 15 35 34 53 19 17 38 43 42 59 4 16 20 42 36 58 20 22 28 40 28 66 0 20 4 40 9 46 4 5 11 23 14 41 7 35 -7 57 -43 68 -24 8 -27 35 -3 35 9 0 25 -8 36 -17 18 -17 19 -17 17 2 -5 44 0 55 25 55 27 0 30 -9 17 -55 -12 -40 -5 -55 23 -55 15 0 36 -15 58 -40 87 -102 315 -143 251 -44 -18 26 -18 27 10 49 l29 23 -17 43 c-10 24 -19 56 -21 72 -8 64 -79 150 -164 200 -28 16 -52 41 -65 65 -67 128 -149 215 -216 229 -17 3 -30 11 -30 18 0 7 -20 31 -45 53 -25 22 -45 42 -45 46 0 16 49 4 62 -15 13 -20 19 -21 63 -13 46 9 50 12 65 52 12 34 26 49 73 78 58 36 61 42 59 112 -1 25 3 32 18 32 10 0 21 -9 25 -19 3 -11 16 -26 30 -35 13 -8 26 -29 30 -46 9 -39 18 -44 41 -19 19 21 19 22 -3 36 -26 18 -30 38 -8 47 8 3 15 12 15 21 0 17 16 20 25 5 3 -5 14 -10 24 -10 10 0 24 -6 31 -14 9 -12 8 -18 -8 -32 -21 -18 -19 -37 6 -67 9 -10 17 -34 18 -55 3 -65 15 -105 27 -93 27 27 54 -5 63 -76 7 -57 11 -68 74 -173 37 -63 60 -121 61 -159 1 -26 1 -26 10 4 7 22 5 40 -8 69 -16 37 -16 39 2 52 10 8 32 14 48 14 22 0 28 4 25 18 -2 9 -13 18 -26 20 -17 3 -22 10 -22 33 0 30 9 36 27 18 7 -7 14 -1 22 22 17 50 14 68 -8 40 -10 -13 -23 -21 -28 -18 -17 10 -22 57 -8 71 16 15 6 35 -42 89 -18 21 -36 51 -40 68 -4 20 -14 34 -29 40 -13 4 -24 16 -24 24 0 64 -250 315 -313 315 -8 0 -22 9 -32 20 -10 11 -26 20 -36 20 -9 0 -19 5 -21 11 -3 8 -10 8 -25 -2 -18 -11 -26 -11 -49 1 -14 8 -30 25 -35 37 -5 13 -13 23 -19 23 -5 0 -10 5 -10 10 0 16 50 12 56 -5 8 -21 24 -19 24 4 0 12 -12 23 -32 32 -18 7 -50 24 -70 37 -31 20 -45 23 -82 18 -48 -7 -58 0 -98 73 -15 26 -22 30 -43 25 -18 -5 -37 1 -65 20 -31 20 -40 23 -40 11 0 -8 -5 -15 -11 -15 -6 0 -9 7 -6 15 9 21 -14 31 -25 11 -5 -9 -16 -16 -23 -16 -21 0 -19 27 3 34 9 3 -16 3 -55 0 -56 -4 -78 -2 -95 10 -28 20 -78 20 -151 1 -54 -14 -59 -14 -89 5 -42 26 -47 25 -58 -5z m88 -87 c16 -16 15 -38 -1 -38 -22 0 -51 26 -43 38 9 15 29 15 44 0z m21 -114 c34 -8 69 -13 79 -10 17 5 113 -6 187 -21 30 -6 43 -16 53 -36 18 -37 38 -44 73 -23 38 22 73 15 135 -29 26 -19 59 -37 73 -40 32 -7 51 -22 73 -56 11 -18 30 -29 60 -35 39 -8 43 -12 46 -41 2 -21 9 -33 18 -33 11 0 13 -7 8 -27 -8 -34 -37 -62 -86 -85 -30 -14 -35 -21 -31 -39 5 -19 3 -21 -25 -15 -18 4 -33 3 -37 -3 -3 -6 -14 -11 -24 -11 -11 0 -24 -12 -31 -30 -7 -16 -18 -30 -25 -30 -13 0 -57 60 -103 141 -31 54 -76 102 -132 141 -23 16 -24 18 -7 28 23 15 15 26 -44 56 -28 14 -54 35 -59 48 -4 12 -23 29 -40 36 -27 11 -40 11 -83 -3 -29 -8 -67 -18 -84 -22 -36 -7 -92 -54 -94 -79 -2 -20 -4 -26 -14 -49 -8 -20 2 -37 13 -21 4 6 17 14 30 18 28 9 29 -6 2 -62 -11 -22 -20 -49 -20 -59 1 -14 6 -12 26 12 14 17 35 41 48 55 13 14 31 37 41 53 15 23 24 27 64 27 68 0 104 -28 162 -127 16 -29 41 -61 55 -72 34 -27 31 -44 -6 -39 -26 4 -36 -1 -60 -33 -33 -41 -37 -61 -16 -79 8 -6 12 -18 9 -26 -8 -21 -39 -17 -55 7 l-14 22 -41 -26 c-64 -40 -120 -127 -83 -127 6 0 10 -7 10 -15 0 -8 6 -12 13 -10 17 6 51 -21 42 -34 -3 -6 -17 -11 -31 -11 -37 0 -32 -39 10 -72 53 -42 82 -53 101 -38 10 8 19 9 28 3 14 -11 76 -29 126 -38 27 -4 44 1 82 25 50 33 59 46 59 89 0 43 -28 63 -73 50 -42 -11 -77 1 -77 28 0 11 -4 13 -12 6 -17 -12 -91 -9 -95 4 -2 6 18 28 44 49 63 50 83 74 83 102 0 37 27 25 51 -25 28 -55 51 -64 84 -33 25 23 50 19 41 -7 -3 -8 1 -27 9 -43 20 -39 19 -90 -4 -151 -20 -51 -18 -70 10 -110 17 -23 3 -69 -20 -69 -10 0 -24 7 -31 15 -19 23 -50 19 -50 -6 0 -15 -5 -20 -22 -17 -30 4 -34 25 -6 31 13 3 -4 5 -37 5 -38 -1 -91 9 -144 26 -95 30 -151 34 -151 11 0 -8 -7 -15 -15 -15 -10 0 -15 10 -15 28 0 17 -10 38 -24 51 -14 13 -36 46 -49 75 -20 41 -32 54 -62 65 -27 9 -40 10 -48 2 -6 -6 -19 -11 -28 -11 -9 0 -36 -16 -59 -35 -42 -35 -64 -43 -74 -26 -4 5 -40 13 -82 16 -88 9 -122 30 -130 85 -6 34 -4 36 53 66 47 25 57 35 55 52 -2 16 4 25 21 31 23 9 52 63 40 74 -2 3 -8 36 -11 74 -7 65 -8 68 -34 71 -29 3 -40 32 -13 32 8 0 15 5 15 11 0 11 -16 9 -52 -6 -24 -10 -24 20 -1 34 14 8 12 11 -18 24 -75 31 -74 31 -76 -18 -2 -42 0 -46 30 -59 47 -20 69 -50 78 -108 5 -28 14 -55 20 -59 12 -7 10 -15 -19 -63 -21 -35 -39 -43 -44 -22 -5 24 -96 -42 -103 -74 -4 -14 -11 -42 -17 -62 -13 -43 7 -106 47 -148 18 -19 75 -146 75 -167 0 -2 6 -3 13 -3 18 0 54 -40 59 -64 3 -17 9 -14 49 20 26 21 49 48 53 58 5 19 6 19 25 2 15 -14 27 -16 48 -11 15 5 33 7 40 6 7 -1 27 5 46 12 30 13 35 13 55 -4 17 -13 21 -24 16 -43 -7 -28 -44 -37 -44 -12 0 13 -39 30 -49 21 -3 -4 9 -36 25 -63 1 -2 11 3 23 10 17 10 25 10 41 0 34 -21 43 -15 36 23 -7 33 -5 35 21 35 33 0 47 9 56 33 10 27 21 20 40 -27 15 -37 21 -42 42 -38 15 2 31 -2 41 -12 23 -24 9 -32 -29 -18 -47 17 -49 16 -45 -20 2 -22 9 -34 23 -38 51 -13 56 -22 59 -116 3 -76 -1 -102 -26 -179 -32 -102 -76 -159 -115 -152 -13 2 -31 -2 -40 -9 -24 -18 -76 -17 -120 1 -19 8 -44 15 -55 15 -10 0 -36 9 -57 20 -32 16 -45 17 -75 9 -35 -10 -36 -12 -30 -45 7 -41 3 -41 -67 -10 -45 20 -57 31 -71 65 -10 23 -18 45 -18 50 0 5 -11 42 -25 82 -13 41 -26 94 -27 119 -3 40 -1 45 20 48 32 5 92 -17 92 -34 0 -8 -4 -14 -9 -14 -5 0 -12 -9 -16 -19 -3 -11 -14 -23 -24 -26 -23 -7 -18 -34 16 -83 13 -19 23 -44 24 -56 1 -12 2 -29 3 -39 0 -10 14 -26 29 -35 l28 -17 50 53 c41 44 46 53 32 58 -50 15 -83 35 -83 50 0 13 7 16 36 11 34 -6 35 -5 20 12 -19 21 -20 50 -4 86 10 23 10 28 -5 36 -21 12 -22 27 -3 48 12 14 10 21 -10 54 -21 32 -28 36 -44 27 -33 -18 -57 -12 -64 16 -4 14 -17 36 -29 48 -12 12 -23 35 -23 50 -1 15 -13 40 -27 54 -13 15 -26 34 -29 42 -7 18 -122 78 -175 91 -76 18 -145 21 -170 8 -20 -11 -32 -10 -71 1 -55 16 -110 16 -172 -1 -11 -3 -14 4 -12 31 2 19 6 43 8 53 4 14 1 17 -13 15 -15 -2 -18 3 -16 30 0 18 9 43 20 54 15 16 17 34 15 94 -3 74 2 85 27 62 11 -11 13 -7 8 19 -5 22 -1 38 12 54 16 20 19 20 32 6 13 -14 17 -13 48 11 53 39 149 140 156 162 6 20 52 50 78 50 7 0 28 15 46 34 18 19 46 37 63 40 16 3 47 19 68 36 21 16 42 30 48 30 5 0 20 11 33 25 27 27 49 33 49 11 0 -18 63 -5 90 19 12 11 32 15 61 14 24 -1 55 3 68 10 16 9 42 11 75 8 35 -4 59 -2 76 8 32 18 36 18 109 -1z m172 -184 c15 0 39 -12 56 -29 17 -15 36 -30 44 -33 12 -4 12 -7 0 -21 -12 -15 -19 -14 -76 18 -38 22 -84 38 -114 42 -28 3 -51 9 -51 13 0 17 19 22 65 16 28 -3 62 -6 76 -6z m669 -60 c0 -5 -4 -10 -10 -10 -5 0 -10 5 -10 10 0 6 5 10 10 10 6 0 10 -4 10 -10z m-530 -337 c0 -14 -15 -29 -32 -36 -13 -5 -18 -1 -18 12 0 10 3 21 7 24 9 9 43 9 43 0z m-1665 -113 c3 -5 2 -10 -4 -10 -5 0 -13 5 -16 10 -3 6 -2 10 4 10 5 0 13 -4 16 -10z m1470 -17 c-8 -36 -17 -44 -35 -33 -11 7 -12 13 -2 34 16 37 46 35 37 -1z m-1310 -13 c-5 -8 -11 -8 -17 -2 -6 6 -7 16 -3 22 5 8 11 8 17 2 6 -6 7 -16 3 -22z m1864 1 c19 -12 5 -31 -23 -31 -22 0 -46 17 -46 32 0 11 51 10 69 -1z m-774 -146 c0 -28 -29 -25 -33 3 -3 19 0 23 15 20 10 -2 18 -12 18 -23z m-1115 -11 c0 -9 -5 -14 -12 -12 -18 6 -21 28 -4 28 9 0 16 -7 16 -16z m927 -1 c4 -12 -35 -29 -44 -19 -8 8 18 37 30 33 6 -2 12 -8 14 -14z m901 -5 c-5 -32 -28 -35 -28 -4 0 17 5 26 16 26 10 0 14 -7 12 -22z m199 0 c7 -6 22 -25 34 -44 18 -29 19 -38 9 -69 -16 -48 -45 -47 -65 1 -8 20 -28 52 -45 70 -44 50 -40 66 13 58 23 -4 48 -11 54 -16z m-487 -2 c0 -16 -18 -31 -27 -22 -8 8 5 36 17 36 5 0 10 -6 10 -14z m-722 -12 c41 -20 40 -30 -4 -44 -46 -16 -64 -2 -44 35 7 14 14 25 15 25 1 0 16 -7 33 -16z m-824 -66 c18 -49 37 -70 44 -50 2 7 11 12 19 12 12 0 14 -8 10 -35 -5 -31 -3 -37 23 -50 16 -8 41 -15 55 -15 15 0 38 -9 52 -20 17 -13 33 -17 54 -13 22 4 29 2 29 -11 0 -22 23 -20 78 8 46 24 72 52 82 91 9 30 68 30 92 0 10 -13 26 -26 36 -29 22 -8 52 -60 52 -92 0 -38 -30 -43 -54 -9 -24 34 -75 85 -85 85 -3 0 -15 -16 -26 -36 -29 -55 -82 -77 -186 -80 -54 -1 -97 -8 -115 -17 -45 -24 -120 -117 -128 -160 -7 -36 -6 -37 24 -37 20 0 30 -5 30 -15 0 -10 -10 -15 -30 -15 -25 0 -30 -4 -30 -24 0 -14 10 -32 22 -40 17 -12 20 -18 10 -28 -19 -19 -14 -73 8 -93 13 -12 20 -31 20 -57 0 -36 2 -38 30 -38 33 0 38 -11 15 -30 -8 -7 -15 -18 -15 -25 0 -22 50 -75 70 -75 27 0 36 21 16 36 -14 10 -15 17 -7 33 14 26 14 68 0 77 -6 3 -17 22 -25 40 -8 19 -20 33 -27 31 -6 -1 -11 7 -10 17 1 11 -6 26 -15 32 -14 10 -15 15 -4 25 6 7 12 30 12 50 0 21 11 59 25 85 30 57 30 57 5 44 -15 -8 -21 -6 -30 9 -5 11 -6 22 -2 25 17 10 118 3 144 -11 l27 -13 -40 -62 c-34 -53 -37 -64 -25 -76 12 -12 18 -12 43 1 16 9 35 23 42 31 22 27 41 20 35 -12 -5 -26 -1 -32 38 -55 l43 -25 32 19 c32 20 32 20 42 0 15 -27 14 -41 -4 -41 -31 0 -14 -39 35 -77 121 -93 185 -133 217 -133 7 0 16 -7 19 -15 4 -8 15 -15 27 -15 11 0 29 -7 39 -17 17 -15 20 -13 60 30 47 53 58 57 58 23 0 -52 21 -86 66 -106 23 -11 48 -20 55 -20 7 0 27 -5 44 -11 40 -15 161 -3 178 17 32 39 41 44 73 44 46 0 82 20 117 64 36 46 45 73 40 118 -4 25 -11 38 -24 41 -26 7 -24 35 4 58 18 15 19 18 5 19 -10 0 -22 -9 -28 -20 -6 -11 -17 -20 -25 -20 -19 0 -20 26 -1 37 19 11 46 68 46 96 0 14 6 30 14 36 12 10 17 8 26 -9 9 -17 17 -20 39 -15 21 4 30 2 34 -9 10 -25 52 -19 66 8 11 20 11 29 -4 54 -20 34 -14 62 13 62 16 0 39 52 48 108 4 22 33 50 75 71 l39 21 20 -22 c24 -26 13 -45 -28 -50 -24 -3 -27 -8 -30 -44 -4 -49 13 -98 30 -88 6 4 38 9 70 11 50 2 58 0 58 -15 0 -13 -9 -17 -37 -19 -21 0 -54 -2 -75 -3 -30 -1 -37 -6 -43 -28 -5 -20 -1 -30 16 -43 28 -21 17 -39 -22 -39 -24 0 -29 -4 -25 -17 23 -79 13 -139 -21 -126 -22 9 -43 -23 -43 -65 0 -26 -5 -35 -21 -39 -26 -7 -39 -41 -39 -102 0 -40 -4 -50 -28 -68 -16 -12 -33 -38 -40 -61 -13 -41 -70 -102 -98 -102 -8 0 -29 -13 -47 -30 -18 -16 -49 -44 -69 -61 -42 -35 -49 -59 -17 -59 22 0 132 62 162 92 10 10 29 18 42 18 13 0 27 5 30 10 12 20 33 9 39 -20 4 -23 11 -30 30 -30 14 0 30 -10 41 -26 12 -19 20 -23 29 -15 9 8 21 2 43 -24 31 -34 33 -35 110 -35 60 0 85 5 111 20 39 24 56 25 80 4 25 -21 17 -58 -20 -89 -26 -22 -36 -25 -78 -19 -43 6 -49 4 -60 -16 -10 -19 -7 -26 29 -60 45 -43 49 -50 26 -50 -9 0 -20 -11 -25 -24 -4 -13 -20 -26 -34 -30 -14 -3 -26 -10 -26 -14 0 -5 -6 -17 -14 -27 -11 -15 -17 -17 -28 -8 -9 8 -19 9 -28 3 -13 -8 -12 -12 5 -24 19 -14 19 -15 2 -21 -9 -4 -24 -2 -31 4 -11 9 -25 5 -64 -19 -27 -16 -54 -30 -60 -30 -6 0 -19 -12 -31 -27 -18 -25 -21 -26 -33 -12 -17 21 -168 15 -168 -7 0 -16 -31 -34 -58 -34 -10 0 -27 -9 -37 -20 -21 -23 -34 -24 -88 -9 -26 7 -37 16 -37 29 0 26 -15 33 -38 19 -26 -16 -74 -4 -70 19 3 15 -10 18 -97 23 -73 4 -109 2 -133 -8 -33 -14 -72 -4 -72 17 0 6 -9 10 -20 10 -24 0 -62 18 -117 56 -28 19 -46 24 -70 20 -35 -5 -44 9 -20 33 10 10 7 11 -15 6 -23 -6 -28 -4 -28 11 -1 27 -98 88 -116 73 -11 -9 -18 -8 -30 2 -14 11 -18 10 -29 -5 -24 -32 -84 8 -69 47 3 8 -6 21 -20 31 -16 10 -26 26 -26 41 0 19 -8 28 -35 39 -24 10 -39 26 -50 53 -9 21 -27 49 -40 63 -13 14 -28 43 -33 65 -7 34 -13 42 -42 51 -26 9 -36 19 -42 43 -6 22 -14 31 -29 31 -18 0 -21 5 -17 32 6 38 -14 93 -39 106 -12 7 -18 27 -21 75 -4 63 -5 65 -33 69 -23 4 -29 1 -29 -14 0 -32 -35 -17 -36 15 -1 15 -8 33 -17 40 -16 12 -20 27 -18 58 1 12 10 16 33 15 34 -2 46 -19 29 -40 -9 -11 -8 -18 5 -30 15 -16 18 -15 48 7 38 30 44 67 16 105 -19 26 -21 43 -24 222 -3 183 -4 194 -23 201 -18 6 -20 14 -15 61 5 61 17 80 46 76 15 -2 22 -12 26 -38 l6 -35 7 40 c4 22 7 58 7 81 0 46 17 72 35 52 7 -7 20 -34 29 -60z m500 22 c17 -6 35 -6 51 0 40 15 33 -23 -8 -42 -31 -15 -33 -15 -65 11 -17 15 -32 31 -32 34 0 10 25 9 54 -3z m-304 -25 c0 -16 -6 -25 -15 -25 -9 0 -15 9 -15 25 0 16 6 25 15 25 9 0 15 -9 15 -25z m104 -7 c-15 -51 -24 -68 -34 -68 -16 0 -24 30 -11 43 6 6 11 19 11 29 0 12 7 18 21 18 17 0 19 -4 13 -22z m946 -44 c0 -9 -5 -14 -12 -12 -18 6 -21 28 -4 28 9 0 16 -7 16 -16z m649 -18 c6 -7 8 -21 5 -31 -5 -13 -14 -15 -43 -10 -20 4 -38 8 -40 10 -9 10 10 34 31 38 13 2 26 5 29 6 4 0 12 -5 18 -13z m-299 -36 c24 -19 24 -21 7 -34 -18 -14 -17 -15 10 -18 15 -2 52 1 81 6 59 9 87 -3 64 -26 -34 -34 -322 -25 -322 9 0 11 7 14 23 9 28 -7 115 18 99 28 -16 10 -15 46 1 46 6 0 23 -9 37 -20z m90 -15 c0 -8 -7 -15 -15 -15 -16 0 -20 12 -8 23 11 12 23 8 23 -8z m-1320 -11 c0 -20 -28 -43 -52 -44 -23 0 -23 18 -1 42 20 23 53 24 53 2z m1870 -19 c10 -13 9 -15 -9 -15 -12 0 -21 6 -21 15 0 8 4 15 9 15 5 0 14 -7 21 -15z m-324 -31 c5 -18 13 -25 28 -23 44 3 56 -1 56 -21 0 -14 -7 -20 -24 -20 -34 0 -56 10 -56 25 0 7 -13 16 -30 20 -49 11 -53 45 -5 45 18 0 26 -7 31 -26z m304 -74 c0 -39 -37 -49 -51 -14 -12 32 -12 30 7 49 21 21 44 3 44 -35z m-1682 3 c-2 -10 -14 -19 -26 -21 -21 -3 -22 -2 -10 17 16 25 41 28 36 4z m1765 -21 c22 -23 25 -33 19 -57 -7 -23 -14 -30 -33 -30 -20 0 -24 5 -24 32 -1 17 -8 40 -18 51 -36 40 17 44 56 4z m-733 -5 c0 -14 -19 -37 -31 -37 -10 0 -20 30 -13 41 8 14 44 11 44 -4z m-1000 -27 c0 -11 7 -23 15 -26 8 -4 15 -12 15 -19 0 -7 7 -18 15 -25 8 -7 15 -16 15 -21 0 -16 -27 -9 -46 12 -14 15 -26 19 -48 15 -61 -12 -73 -29 -81 -106 -6 -57 -10 -70 -22 -66 -8 3 -19 6 -25 6 -6 0 -8 12 -4 31 3 18 1 38 -5 45 -13 15 -4 34 16 34 17 0 27 33 23 70 -3 22 1 25 33 28 21 2 45 12 54 23 23 25 45 24 45 -1z m1058 -37 c0 -21 2 -47 6 -58 9 -27 -18 -65 -34 -48 -15 14 -32 101 -24 125 3 11 15 18 29 18 22 0 24 -4 23 -37z m-87 -32 c-7 -12 -11 -29 -9 -39 2 -11 -4 -17 -17 -17 -17 0 -20 6 -17 33 1 19 7 43 13 54 10 18 13 19 26 5 12 -12 13 -19 4 -36z m379 25 c0 -8 -5 -18 -11 -22 -14 -8 -33 11 -25 25 10 16 36 13 36 -3z m-1342 -191 c25 -26 32 -39 24 -47 -8 -8 -20 -3 -42 16 -17 14 -36 26 -41 26 -5 0 -9 9 -9 20 0 31 28 24 68 -15z m106 -37 c20 -28 20 -48 3 -48 -13 0 -37 40 -37 60 0 17 18 11 34 -12z m751 -129 c6 -31 16 -63 23 -72 19 -22 6 -40 -19 -27 -28 16 -49 63 -49 115 0 39 3 46 18 43 12 -2 20 -19 27 -59z m-727 19 c-4 -27 -28 -36 -28 -10 0 20 8 32 22 32 5 0 8 -10 6 -22z m616 -44 c17 -7 22 -49 7 -58 -5 -3 -14 1 -21 9 -14 17 -46 20 -55 4 -4 -5 -4 -21 -1 -35 7 -28 40 -32 67 -8 14 12 22 13 39 4 33 -17 19 -33 -46 -54 -32 -10 -78 -27 -101 -37 -61 -27 -91 -9 -77 47 7 28 16 30 34 9 11 -13 50 -22 50 -11 0 2 3 11 6 19 6 16 -34 41 -86 52 -44 10 -23 31 38 40 27 3 54 10 62 16 17 10 61 12 84 3z m-470 -40 c9 -8 14 -19 11 -24 -6 -10 -78 15 -83 29 -6 17 54 13 72 -5z m-71 -29 c4 -8 2 -17 -4 -21 -12 -7 -41 15 -33 27 8 14 31 11 37 -6z m323 -29 c7 -19 -13 -56 -31 -56 -17 0 -19 23 -5 51 13 22 28 25 36 5z m1073 -290 c7 -8 11 -27 9 -43 -2 -22 -9 -29 -30 -31 -31 -4 -34 5 -16 55 13 37 20 40 37 19z m-169 -474 c0 -13 -12 -22 -22 -16 -10 6 -1 24 13 24 5 0 9 -4 9 -8z m-1295 -152 c10 -17 -16 -41 -39 -38 -13 2 -22 12 -24 26 -3 19 1 22 27 22 16 0 33 -5 36 -10z m415 -45 c10 -12 10 -21 0 -45 -7 -16 -18 -30 -25 -30 -13 0 -28 66 -19 82 8 13 30 9 44 -7z"/>
 <path d="M1770 2860 c-8 -5 -37 -10 -63 -10 -41 0 -56 -6 -93 -36 -40 -33 -44 -40 -45 -83 0 -25 -4 -55 -8 -66 -5 -12 -3 -37 5 -60 48 -147 48 -180 -2 -220 -32 -25 -27 -67 6 -58 13 3 20 0 20 -8 1 -11 3 -10 13 2 7 8 20 18 30 22 9 3 17 16 17 27 0 12 7 35 16 52 22 43 27 138 7 160 -11 12 -13 27 -8 57 5 33 4 41 -9 41 -24 0 -28 17 -15 55 11 31 18 35 58 41 66 8 82 14 80 27 -3 27 2 37 20 37 10 0 24 7 31 15 11 13 8 15 -16 15 -16 0 -36 -5 -44 -10z"/>
 <path d="M2230 2778 c-23 -38 -27 -149 -7 -184 24 -41 77 -98 84 -90 10 10 -10 39 -35 51 -24 11 -24 12 -25 130 -1 46 4 90 11 103 20 36 -6 27 -28 -10z"/>
 <path d="M2296 2648 c-6 -30 11 -88 26 -88 5 0 5 21 -1 103 -2 28 -18 19 -25 -15z"/>
 <path d="M1300 2610 c0 -5 5 -10 11 -10 5 0 7 5 4 10 -3 6 -8 10 -11 10 -2 0 -4 -4 -4 -10z"/>
 <path d="M2142 2023 c-13 -3 -21 -10 -19 -16 4 -14 54 -33 63 -25 7 8 -5 48 -14 47 -4 -1 -17 -4 -30 -6z"/>
 <path d="M2400 2001 c0 -20 17 -37 27 -28 7 8 -7 47 -18 47 -5 0 -9 -9 -9 -19z"/>
 <path d="M2052 1988 c-15 -15 3 -38 29 -38 14 0 19 7 19 25 0 27 -26 35 -48 13z"/>
 <path d="M2268 1911 c-24 -12 -40 -15 -46 -9 -25 25 -78 -58 -97 -150 -14 -65 -12 -88 5 -77 5 3 17 -6 27 -21 9 -15 32 -33 50 -41 19 -7 31 -18 28 -23 -3 -5 4 -19 15 -30 18 -18 26 -20 48 -11 46 18 106 25 98 12 -4 -6 -3 -11 2 -11 17 0 36 31 37 58 0 16 5 26 12 25 18 -4 43 62 43 111 0 43 -30 112 -57 133 -9 7 -27 10 -40 7 -18 -5 -25 -1 -32 17 -5 13 -10 18 -10 12 -1 -18 -31 -16 -31 2 0 19 -6 18 -52 -4z m156 -77 c26 -32 28 -37 16 -60 -14 -24 -45 -35 -37 -11 2 6 -6 28 -18 47 -40 63 -9 82 39 24z m-54 -55 c0 -13 -41 -52 -47 -45 -3 3 -1 12 5 19 7 8 9 17 6 20 -3 3 -3 10 0 16 7 12 36 4 36 -10z m0 -49 c0 -5 -5 -10 -11 -10 -5 0 -7 5 -4 10 3 6 8 10 11 10 2 0 4 -4 4 -10z"/>
 <path d="M2700 1595 c-22 -13 -21 -20 3 -16 5 1 22 -8 38 -19 29 -21 29 -21 29 -1 0 51 -23 63 -70 36z"/>
 <path d="M2695 1488 c-14 -21 -14 -24 2 -35 37 -27 65 -4 43 36 -14 27 -25 26 -45 -1z"/>
 <path d="M1394 1304 c3 -9 6 -28 6 -44 0 -20 5 -27 18 -26 12 1 18 -7 20 -26 3 -22 10 -30 42 -38 21 -6 41 -17 44 -26 4 -11 14 -15 31 -12 19 4 25 1 25 -12 0 -9 12 -23 26 -30 39 -21 66 -67 76 -124 4 -28 15 -56 24 -63 12 -9 15 -21 10 -47 -4 -19 -2 -37 3 -40 5 -3 7 -23 4 -44 -4 -33 0 -44 33 -83 56 -65 117 -94 188 -86 72 7 103 27 149 92 40 58 45 75 22 75 -19 0 -19 20 1 48 14 21 14 22 -12 22 -20 0 -25 4 -20 16 11 28 -22 54 -69 54 -38 0 -44 -3 -55 -31 -17 -40 -5 -60 41 -72 104 -27 88 -100 -31 -142 -50 -18 -74 -8 -133 53 -30 31 -40 51 -47 93 -5 30 -12 66 -16 81 -5 23 -1 30 27 47 19 12 48 21 66 21 24 0 37 8 60 38 25 32 28 43 23 87 -5 46 -8 51 -47 73 -39 21 -44 22 -71 8 -32 -16 -50 -46 -29 -46 7 0 17 4 23 9 13 14 75 -1 88 -21 14 -24 -2 -66 -37 -92 -24 -18 -31 -19 -60 -8 -17 7 -36 14 -40 15 -9 2 -44 37 -137 140 -29 31 -57 57 -63 57 -5 0 -27 16 -49 35 -21 20 -52 38 -69 42 -16 3 -32 10 -35 14 -10 16 -37 10 -30 -7z"/>
 <path d="M2455 851 c-3 -10 -17 -26 -30 -35 -46 -30 -59 -63 -61 -152 -2 -68 0 -84 12 -84 8 0 19 -11 26 -25 22 -48 158 -73 193 -35 10 11 26 20 35 20 28 0 40 22 40 72 0 46 -1 47 -39 59 -41 12 -91 6 -91 -11 0 -6 12 -10 26 -10 36 0 28 -28 -15 -57 -43 -29 -47 -29 -78 5 -32 35 -47 71 -34 86 6 7 8 21 5 32 -3 13 8 39 31 74 38 57 40 73 8 78 -14 2 -23 -4 -28 -17z"/>
 <path d="M1515 710 c-4 -6 6 -10 22 -10 22 0 25 2 13 10 -19 12 -27 12 -35 0z"/>
 <path d="M2298 433 c7 -3 16 -2 19 1 4 3 -2 6 -13 5 -11 0 -14 -3 -6 -6z"/>
 <path d="M2430 417 c0 -21 26 -29 40 -11 8 9 9 14 2 14 -6 0 -17 3 -26 6 -10 4 -16 1 -16 -9z"/>
 <path d="M1490 3081 c0 -5 -3 -18 -6 -28 -6 -16 -5 -16 9 2 19 23 21 35 7 35 -5 0 -10 -4 -10 -9z"/>
 <path d="M1422 3048 c-15 -15 -15 -33 1 -46 9 -8 12 -2 13 24 0 19 0 34 -1 34 0 0 -6 -5 -13 -12z"/>
 <path d="M3490 2560 c0 -5 5 -10 10 -10 6 0 10 5 10 10 0 6 -4 10 -10 10 -5 0 -10 -4 -10 -10z"/>
 <path d="M3580 2445 c0 -8 4 -15 10 -15 5 0 7 7 4 15 -4 8 -8 15 -10 15 -2 0 -4 -7 -4 -15z"/>
 <path d="M3500 1590 c0 -5 11 -10 25 -10 14 0 25 5 25 10 0 6 -11 10 -25 10 -14 0 -25 -4 -25 -10z"/>
 </g>

</svg>